<svg width="16" height="16" viewBox="0 0 16 16" fill="none" xmlns="http://www.w3.org/2000/svg">
<rect width="16" height="16" rx="2" fill="black"/>
<path d="M9.55513 2.31759L8.36987 2L7.37103 5.72774L6.46926 2.36231L5.28397 2.67991L6.25828 6.316L3.8315 3.88924L2.96382 4.75692L5.62568 7.41881L2.31076 6.53057L1.99316 7.71583L5.61514 8.68634C5.57367 8.50748 5.55173 8.32112 5.55173 8.12963C5.55173 6.77422 6.6505 5.67545 8.00591 5.67545C9.36133 5.67545 10.4601 6.77422 10.4601 8.12963C10.4601 8.31988 10.4384 8.5051 10.3975 8.68291L13.6892 9.56491L14.0068 8.37965L10.3704 7.40528L13.6855 6.51698L13.3679 5.33171L9.7317 6.30602L12.1585 3.87928L11.2908 3.0116L8.66584 5.63654L9.55513 2.31759Z" fill="#F97316"/>
<path d="M10.3942 8.69653C10.2926 9.12616 10.0781 9.51211 9.78369 9.82134L12.1684 12.2061L13.0361 11.3384L10.3942 8.69653Z" fill="#F97316"/>
<path d="M9.75972 9.84644C9.46179 10.1507 9.0853 10.3778 8.66309 10.4948L9.53083 13.7333L10.7161 13.4157L9.75972 9.84644Z" fill="#F97316"/>
<path d="M8.6187 10.5065C8.42282 10.5569 8.2175 10.5836 8.00591 10.5836C7.77922 10.5836 7.55971 10.5529 7.35132 10.4954L6.48279 13.7368L7.66805 14.0543L8.6187 10.5065Z" fill="#F97316"/>
<path d="M7.30952 10.4837C6.89376 10.3608 6.52395 10.1308 6.23211 9.82568L3.84155 12.2162L4.70924 13.0839L7.30952 10.4837Z" fill="#F97316"/>
<path d="M6.21213 9.80449C5.92529 9.4974 5.71635 9.1166 5.6169 8.6936L2.31445 9.5785L2.63205 10.7638L6.21213 9.80449Z" fill="#F97316"/>
</svg>
