<svg width="156" height="41" viewBox="0 0 156 41" fill="none" xmlns="http://www.w3.org/2000/svg">
<path d="M25.0925 1.55386L21.1595 0.5L17.8451 12.8696L14.8528 1.70224L10.9197 2.7561L14.1527 14.8216L6.10008 6.76898L3.22089 9.64817L12.0536 18.481L1.05386 15.5336L0 19.4666L12.0186 22.687C11.881 22.0935 11.8082 21.4751 11.8082 20.8397C11.8082 16.3421 15.4542 12.6961 19.9518 12.6961C24.4494 12.6961 28.0954 16.3421 28.0954 20.8397C28.0954 21.471 28.0235 22.0856 27.8876 22.6756L38.8103 25.6023L39.8641 21.6693L27.7977 18.4361L38.7982 15.4885L37.7443 11.5555L25.6784 14.7885L33.731 6.73592L30.8518 3.85673L22.1416 12.567L25.0925 1.55386Z" fill="#F97316"/>
<path d="M27.877 22.7214C27.5398 24.147 26.8279 25.4277 25.8511 26.4538L33.7641 34.3669L36.6433 31.4877L27.877 22.7214Z" fill="#F97316"/>
<path d="M25.7712 26.5366C24.7826 27.5463 23.5333 28.2998 22.1323 28.6881L25.0117 39.4341L28.9447 38.3802L25.7712 26.5366Z" fill="#F97316"/>
<path d="M21.985 28.7274C21.335 28.8945 20.6537 28.9833 19.9516 28.9833C19.1994 28.9833 18.471 28.8813 17.7795 28.6904L14.8975 39.4462L18.8305 40.5L21.985 28.7274Z" fill="#F97316"/>
<path d="M17.6409 28.6506C16.2613 28.243 15.0342 27.4799 14.0658 26.4673L6.1333 34.3998L9.01249 37.279L17.6409 28.6506Z" fill="#F97316"/>
<path d="M13.9994 26.3973C13.0476 25.3783 12.3543 24.1147 12.0243 22.7111L1.06592 25.6474L2.11977 29.5804L13.9994 26.3973Z" fill="#F97316"/>
<path d="M50.6643 17.78C51.1176 17.1 51.4909 16.4667 51.7843 15.88C52.0909 15.2933 52.3843 14.6133 52.6643 13.84C53.6109 14.3867 54.7109 14.8133 55.9643 15.12C57.2176 15.4267 58.3843 15.58 59.4643 15.58C60.5709 15.58 61.3509 15.4867 61.8043 15.3C62.2576 15.1 62.4843 14.8867 62.4843 14.66C62.4843 13.8467 61.2443 13.44 58.7643 13.44C56.0443 13.44 54.0709 13.16 52.8443 12.6C51.6176 12.0267 51.0043 11.1067 51.0043 9.84C51.0043 8.04 51.7509 6.71333 53.2443 5.86C54.7376 5.00667 56.6776 4.58 59.0643 4.58C60.4509 4.58 61.8709 4.76 63.3243 5.12C64.7909 5.46667 66.1109 5.94667 67.2843 6.56C66.8976 7.44 66.4909 8.51333 66.0643 9.78C65.9843 10.0467 65.9176 10.2467 65.8643 10.38C65.1843 9.83333 64.1576 9.38 62.7843 9.02C61.4109 8.64667 60.1976 8.46 59.1443 8.46C57.8776 8.46 57.0243 8.54667 56.5843 8.72C56.1443 8.88 55.9243 9.12 55.9243 9.44C55.9243 9.76 56.2243 10.02 56.8243 10.22C57.4376 10.4067 58.3176 10.5 59.4643 10.5C62.2909 10.5 64.3443 10.8267 65.6243 11.48C66.9043 12.12 67.5443 13.1067 67.5443 14.44C67.5443 16.3067 66.8643 17.6533 65.5043 18.48C64.1443 19.2933 62.0843 19.7 59.3243 19.7C57.8443 19.7 56.3376 19.54 54.8043 19.22C53.2709 18.8867 51.8909 18.4067 50.6643 17.78ZM86.14 4.98L85.76 5.56C84.3334 7.77333 83.1067 9.73333 82.08 11.44C81.0667 13.1333 80.22 14.6933 79.54 16.12V19.5H74.32V15.78C73.8267 14.78 73.2467 13.7533 72.58 12.7C71.9134 11.6333 70.9667 10.1733 69.74 8.32C68.78 6.90667 68.0467 5.79333 67.54 4.98H73.14C73.54 5.79333 74.1934 7 75.1 8.6C76.0067 10.2267 76.6267 11.3733 76.96 12.04C77.4267 11.0667 78.0534 9.87333 78.84 8.46C79.76 6.80667 80.38 5.64667 80.7 4.98H86.14ZM103.987 5C103.894 7.25333 103.847 9.66667 103.847 12.24C103.847 14.8267 103.894 17.2467 103.987 19.5H96.8272L91.9872 8.58L92.3472 19.5H87.2072C87.3139 16.9133 87.3672 14.4933 87.3672 12.24C87.3672 10 87.3139 7.58667 87.2072 5H94.5672L99.4272 16.22L99.0872 5H103.987ZM122.766 9.18C120.673 9.11333 118.639 9.07333 116.666 9.06V19.5H111.666V9.06C109.679 9.07333 107.653 9.11333 105.586 9.18V4.98H122.766V9.18ZM141.135 4.98C141.042 7.23333 140.995 9.65333 140.995 12.24C140.995 14.8267 141.042 17.2467 141.135 19.5H136.435V14.06H129.075V19.5H124.375C124.482 16.9133 124.535 14.4933 124.535 12.24C124.535 9.98667 124.482 7.56667 124.375 4.98H129.075V10.42H136.435V4.98H141.135ZM154.355 8.96C152.768 8.88 151.595 8.83333 150.835 8.82V15.66C151.608 15.6467 152.781 15.6 154.355 15.52V19.5H142.735V15.52C144.268 15.6 145.435 15.6467 146.235 15.66V8.82C145.435 8.83333 144.268 8.88 142.735 8.96V4.98H154.355V8.96ZM58.9043 31.22H67.4443V39.5H63.9243L63.5043 35.96C63.1043 37.2267 62.3909 38.1667 61.3643 38.78C60.3376 39.3933 59.0843 39.7 57.6043 39.7C56.2576 39.7 55.0576 39.4 54.0043 38.8C52.9643 38.2 52.1443 37.34 51.5443 36.22C50.9576 35.1 50.6643 33.7933 50.6643 32.3C50.6643 29.9133 51.3776 28.0267 52.8043 26.64C54.2309 25.2533 56.4509 24.56 59.4643 24.56C61.1843 24.56 62.6976 24.84 64.0043 25.4C65.3243 25.96 66.4443 26.8267 67.3643 28C66.7643 28.3067 65.5909 28.92 63.8443 29.84L63.3443 30.12C62.8243 29.6 62.2176 29.2133 61.5243 28.96C60.8309 28.6933 60.0976 28.56 59.3243 28.56C58.0443 28.56 57.0909 28.9 56.4643 29.58C55.8376 30.2467 55.5243 31.0733 55.5243 32.06C55.5243 33.1267 55.8576 33.9867 56.5243 34.64C57.2043 35.2933 58.2376 35.62 59.6243 35.62C60.2243 35.62 60.8043 35.5333 61.3643 35.36C61.9376 35.1867 62.4176 34.8867 62.8043 34.46H58.9043V31.22ZM81.6632 39.5C81.4098 38.74 81.0698 37.7867 80.6432 36.64H74.2632L73.2632 39.5H68.2432L73.8432 24.98H81.2032L86.8432 39.5H81.6632ZM79.5032 33.52C78.9965 32.12 78.4765 30.72 77.9432 29.32L77.4632 28.02C76.9965 29.2333 76.3098 31.0667 75.4032 33.52H79.5032ZM106.61 24.98L108.17 39.5H102.99L102.67 29.14L100.67 39.5H95.4304L93.3904 29.22L93.0904 39.5H87.9104L89.4704 24.98H96.2704L98.0104 34.44L99.5304 24.98H106.61ZM114.486 35.84C119.552 35.8133 123.226 35.74 125.506 35.62C125.412 36.1667 125.352 36.7333 125.326 37.32C125.312 37.8933 125.306 38.62 125.306 39.5H109.766C109.872 36.9133 109.926 34.4933 109.926 32.24C109.926 29.9867 109.872 27.5667 109.766 24.98H125.306V28.6H114.486V30.52C115.126 30.5333 116.072 30.54 117.326 30.54C119.446 30.54 121.639 30.5 123.906 30.42V33.86C121.639 33.78 119.446 33.74 117.326 33.74C116.072 33.74 115.126 33.7467 114.486 33.76V35.84ZM127.11 37.78C127.563 37.1 127.936 36.4667 128.23 35.88C128.536 35.2933 128.83 34.6133 129.11 33.84C130.056 34.3867 131.156 34.8133 132.41 35.12C133.663 35.4267 134.83 35.58 135.91 35.58C137.016 35.58 137.796 35.4867 138.25 35.3C138.703 35.1 138.93 34.8867 138.93 34.66C138.93 33.8467 137.69 33.44 135.21 33.44C132.49 33.44 130.516 33.16 129.29 32.6C128.063 32.0267 127.45 31.1067 127.45 29.84C127.45 28.04 128.196 26.7133 129.69 25.86C131.183 25.0067 133.123 24.58 135.51 24.58C136.896 24.58 138.316 24.76 139.77 25.12C141.236 25.4667 142.556 25.9467 143.73 26.56C143.343 27.44 142.936 28.5133 142.51 29.78C142.43 30.0467 142.363 30.2467 142.31 30.38C141.63 29.8333 140.603 29.38 139.23 29.02C137.856 28.6467 136.643 28.46 135.59 28.46C134.323 28.46 133.47 28.5467 133.03 28.72C132.59 28.88 132.37 29.12 132.37 29.44C132.37 29.76 132.67 30.02 133.27 30.22C133.883 30.4067 134.763 30.5 135.91 30.5C138.736 30.5 140.79 30.8267 142.07 31.48C143.35 32.12 143.99 33.1067 143.99 34.44C143.99 36.3067 143.31 37.6533 141.95 38.48C140.59 39.2933 138.53 39.7 135.77 39.7C134.29 39.7 132.783 39.54 131.25 39.22C129.716 38.8867 128.336 38.4067 127.11 37.78Z" fill="black"/>
</svg>
