<svg width="156" height="40" viewBox="0 0 156 40" fill="none" xmlns="http://www.w3.org/2000/svg">
<path d="M25.0925 1.05386L21.1595 0L17.8451 12.3696L14.8528 1.20224L10.9197 2.2561L14.1527 14.3216L6.10008 6.26898L3.22089 9.14817L12.0536 17.981L1.05386 15.0336L0 18.9666L12.0186 22.187C11.881 21.5935 11.8082 20.9751 11.8082 20.3397C11.8082 15.8421 15.4542 12.1961 19.9518 12.1961C24.4494 12.1961 28.0954 15.8421 28.0954 20.3397C28.0954 20.971 28.0235 21.5856 27.8876 22.1756L38.8103 25.1023L39.8641 21.1693L27.7977 17.9361L38.7982 14.9885L37.7443 11.0555L25.6784 14.2885L33.731 6.23592L30.8518 3.35673L22.1416 12.067L25.0925 1.05386Z" fill="#F97316"/>
<path d="M27.8769 22.2214C27.5397 23.647 26.8278 24.9277 25.851 25.9538L33.764 33.8669L36.6432 30.9877L27.8769 22.2214Z" fill="#F97316"/>
<path d="M25.771 26.0366C24.7824 27.0463 23.5331 27.7998 22.1321 28.1881L25.0115 38.9341L28.9445 37.8802L25.771 26.0366Z" fill="#F97316"/>
<path d="M21.9852 28.2274C21.3352 28.3945 20.6539 28.4833 19.9518 28.4833C19.1996 28.4833 18.4712 28.3813 17.7797 28.1904L14.8977 38.9462L18.8307 40L21.9852 28.2274Z" fill="#F97316"/>
<path d="M17.6407 28.1506C16.2611 27.743 15.034 26.9799 14.0656 25.9673L6.13315 33.8998L9.01234 36.779L17.6407 28.1506Z" fill="#F97316"/>
<path d="M13.9994 25.8973C13.0476 24.8783 12.3543 23.6147 12.0243 22.2111L1.06595 25.1474L2.1198 29.0804L13.9994 25.8973Z" fill="#F97316"/>
<path d="M50.6641 17.28C51.1175 16.6 51.4908 15.9667 51.7841 15.38C52.0908 14.7933 52.3841 14.1133 52.6641 13.34C53.6108 13.8867 54.7108 14.3133 55.9641 14.62C57.2175 14.9267 58.3841 15.08 59.4641 15.08C60.5708 15.08 61.3508 14.9867 61.8041 14.8C62.2575 14.6 62.4841 14.3867 62.4841 14.16C62.4841 13.3467 61.2441 12.94 58.7641 12.94C56.0441 12.94 54.0708 12.66 52.8441 12.1C51.6175 11.5267 51.0041 10.6067 51.0041 9.34C51.0041 7.54 51.7508 6.21333 53.2441 5.36C54.7375 4.50667 56.6775 4.08 59.0641 4.08C60.4508 4.08 61.8708 4.26 63.3241 4.62C64.7908 4.96667 66.1108 5.44667 67.2841 6.06C66.8975 6.94 66.4908 8.01333 66.0641 9.28C65.9841 9.54667 65.9175 9.74667 65.8641 9.88C65.1841 9.33333 64.1575 8.88 62.7841 8.52C61.4108 8.14667 60.1975 7.96 59.1441 7.96C57.8775 7.96 57.0241 8.04667 56.5841 8.22C56.1441 8.38 55.9241 8.62 55.9241 8.94C55.9241 9.26 56.2241 9.52 56.8241 9.72C57.4375 9.90667 58.3175 10 59.4641 10C62.2908 10 64.3441 10.3267 65.6241 10.98C66.9041 11.62 67.5441 12.6067 67.5441 13.94C67.5441 15.8067 66.8641 17.1533 65.5041 17.98C64.1441 18.7933 62.0841 19.2 59.3241 19.2C57.8441 19.2 56.3375 19.04 54.8041 18.72C53.2708 18.3867 51.8908 17.9067 50.6641 17.28ZM86.1399 4.48L85.7599 5.06C84.3332 7.27333 83.1066 9.23333 82.0799 10.94C81.0666 12.6333 80.2199 14.1933 79.5399 15.62V19H74.3199V15.28C73.8266 14.28 73.2466 13.2533 72.5799 12.2C71.9132 11.1333 70.9666 9.67333 69.7399 7.82C68.7799 6.40667 68.0466 5.29333 67.5399 4.48H73.1399C73.5399 5.29333 74.1932 6.5 75.0999 8.1C76.0066 9.72667 76.6266 10.8733 76.9599 11.54C77.4266 10.5667 78.0532 9.37333 78.8399 7.96C79.7599 6.30667 80.3799 5.14667 80.6999 4.48H86.1399ZM103.987 4.5C103.894 6.75333 103.847 9.16667 103.847 11.74C103.847 14.3267 103.894 16.7467 103.987 19H96.8271L91.9871 8.08L92.3471 19H87.2071C87.3138 16.4133 87.3671 13.9933 87.3671 11.74C87.3671 9.5 87.3138 7.08667 87.2071 4.5H94.5671L99.4271 15.72L99.0871 4.5H103.987ZM122.766 8.68C120.673 8.61333 118.639 8.57333 116.666 8.56V19H111.666V8.56C109.679 8.57333 107.653 8.61333 105.586 8.68V4.48H122.766V8.68ZM141.135 4.48C141.042 6.73333 140.995 9.15333 140.995 11.74C140.995 14.3267 141.042 16.7467 141.135 19H136.435V13.56H129.075V19H124.375C124.482 16.4133 124.535 13.9933 124.535 11.74C124.535 9.48667 124.482 7.06667 124.375 4.48H129.075V9.92H136.435V4.48H141.135ZM154.354 8.46C152.768 8.38 151.594 8.33333 150.834 8.32V15.16C151.608 15.1467 152.781 15.1 154.354 15.02V19H142.734V15.02C144.268 15.1 145.434 15.1467 146.234 15.16V8.32C145.434 8.33333 144.268 8.38 142.734 8.46V4.48H154.354V8.46ZM58.9041 30.72H67.4441V39H63.9241L63.5041 35.46C63.1041 36.7267 62.3908 37.6667 61.3641 38.28C60.3375 38.8933 59.0841 39.2 57.6041 39.2C56.2575 39.2 55.0575 38.9 54.0041 38.3C52.9641 37.7 52.1441 36.84 51.5441 35.72C50.9575 34.6 50.6641 33.2933 50.6641 31.8C50.6641 29.4133 51.3775 27.5267 52.8041 26.14C54.2308 24.7533 56.4508 24.06 59.4641 24.06C61.1841 24.06 62.6975 24.34 64.0041 24.9C65.3241 25.46 66.4441 26.3267 67.3641 27.5C66.7641 27.8067 65.5908 28.42 63.8441 29.34L63.3441 29.62C62.8241 29.1 62.2175 28.7133 61.5241 28.46C60.8308 28.1933 60.0975 28.06 59.3241 28.06C58.0441 28.06 57.0908 28.4 56.4641 29.08C55.8375 29.7467 55.5241 30.5733 55.5241 31.56C55.5241 32.6267 55.8575 33.4867 56.5241 34.14C57.2041 34.7933 58.2375 35.12 59.6241 35.12C60.2241 35.12 60.8041 35.0333 61.3641 34.86C61.9375 34.6867 62.4175 34.3867 62.8041 33.96H58.9041V30.72ZM81.663 39C81.4097 38.24 81.0697 37.2867 80.643 36.14H74.263L73.263 39H68.243L73.843 24.48H81.203L86.843 39H81.663ZM79.503 33.02C78.9964 31.62 78.4764 30.22 77.943 28.82L77.463 27.52C76.9964 28.7333 76.3097 30.5667 75.403 33.02H79.503ZM106.61 24.48L108.17 39H102.99L102.67 28.64L100.67 39H95.4302L93.3902 28.72L93.0902 39H87.9102L89.4702 24.48H96.2702L98.0102 33.94L99.5302 24.48H106.61ZM114.486 35.34C119.552 35.3133 123.226 35.24 125.506 35.12C125.412 35.6667 125.352 36.2333 125.326 36.82C125.312 37.3933 125.306 38.12 125.306 39H109.766C109.872 36.4133 109.926 33.9933 109.926 31.74C109.926 29.4867 109.872 27.0667 109.766 24.48H125.306V28.1H114.486V30.02C115.126 30.0333 116.072 30.04 117.326 30.04C119.446 30.04 121.639 30 123.906 29.92V33.36C121.639 33.28 119.446 33.24 117.326 33.24C116.072 33.24 115.126 33.2467 114.486 33.26V35.34ZM127.109 37.28C127.563 36.6 127.936 35.9667 128.229 35.38C128.536 34.7933 128.829 34.1133 129.109 33.34C130.056 33.8867 131.156 34.3133 132.409 34.62C133.663 34.9267 134.829 35.08 135.909 35.08C137.016 35.08 137.796 34.9867 138.249 34.8C138.703 34.6 138.929 34.3867 138.929 34.16C138.929 33.3467 137.689 32.94 135.209 32.94C132.489 32.94 130.516 32.66 129.289 32.1C128.063 31.5267 127.449 30.6067 127.449 29.34C127.449 27.54 128.196 26.2133 129.689 25.36C131.183 24.5067 133.123 24.08 135.509 24.08C136.896 24.08 138.316 24.26 139.769 24.62C141.236 24.9667 142.556 25.4467 143.729 26.06C143.343 26.94 142.936 28.0133 142.509 29.28C142.429 29.5467 142.363 29.7467 142.309 29.88C141.629 29.3333 140.603 28.88 139.229 28.52C137.856 28.1467 136.643 27.96 135.589 27.96C134.323 27.96 133.469 28.0467 133.029 28.22C132.589 28.38 132.369 28.62 132.369 28.94C132.369 29.26 132.669 29.52 133.269 29.72C133.883 29.9067 134.763 30 135.909 30C138.736 30 140.789 30.3267 142.069 30.98C143.349 31.62 143.989 32.6067 143.989 33.94C143.989 35.8067 143.309 37.1533 141.949 37.98C140.589 38.7933 138.529 39.2 135.769 39.2C134.289 39.2 132.783 39.04 131.249 38.72C129.716 38.3867 128.336 37.9067 127.109 37.28Z" fill="white"/>
</svg>
